<svg id="Layer_1" data-name="Layer 1" xmlns="http://www.w3.org/2000/svg" xmlns:xlink="http://www.w3.org/1999/xlink" viewBox="0 0 317.53 402.27"><defs><style>.cls-1{fill:url(#linear-gradient);}.cls-2,.cls-4,.cls-6{fill:#b3b4b4;}.cls-2,.cls-3{clip-rule:evenodd;}.cls-11,.cls-3,.cls-9{fill:#e6e6e6;}.cls-4,.cls-8,.cls-9{fill-rule:evenodd;}.cls-5{clip-path:url(#clip-path);}.cls-7{mask:url(#mask);}.cls-8{fill:#fff;}.cls-10{clip-path:url(#clip-path-2);}</style><linearGradient id="linear-gradient" x1="-7835.86" y1="3371.27" x2="-7647.69" y2="3775.38" gradientTransform="translate(-7477.69 3865) rotate(180)" gradientUnits="userSpaceOnUse"><stop offset="0" stop-color="#fff"/><stop offset="1"/></linearGradient><clipPath id="clip-path" transform="translate(-88.38 -51.25)"><path class="cls-2" d="M288.77,264.58A105.59,105.59,0,0,0,313.68,267a86.62,86.62,0,0,1,19.41,171.29A193.27,193.27,0,1,1,306.73,56.17,105.5,105.5,0,0,0,206.16,165q.1,3.19.39,6.34a105.57,105.57,0,0,0,82.22,93.21"/></clipPath><mask id="mask" x="12.04" y="4.11" width="287.24" height="386.55" maskUnits="userSpaceOnUse"><g transform="translate(-88.38 -51.25)"><rect class="cls-1" x="100.42" y="55.36" width="287.24" height="386.55"/></g></mask><clipPath id="clip-path-2" transform="translate(-88.38 -51.25)"><path class="cls-3" d="M371,150.18a73.73,73.73,0,1,0-52.13,90.31A73.72,73.72,0,0,0,371,150.18"/></clipPath></defs><path class="cls-4" d="M288.77,264.58A105.59,105.59,0,0,0,313.68,267a86.62,86.62,0,0,1,19.41,171.29A193.27,193.27,0,1,1,306.73,56.17,105.5,105.5,0,0,0,206.16,165q.1,3.19.39,6.34a105.57,105.57,0,0,0,82.22,93.21" transform="translate(-88.38 -51.25)"/><g class="cls-5"><rect class="cls-6" width="317.53" height="402.27"/></g><g class="cls-7"><path class="cls-8" d="M172.37,176.35A176.72,176.72,0,0,0,387.66,399.51a86.48,86.48,0,0,1-55,38.42A193.27,193.27,0,1,1,306.33,55.77a105.13,105.13,0,0,0-69.5,30.56,176.7,176.7,0,0,0-64.46,90" transform="translate(-88.38 -51.25)"/></g><path class="cls-9" d="M371,150.18a73.73,73.73,0,1,0-52.13,90.31A73.72,73.72,0,0,0,371,150.18" transform="translate(-88.38 -51.25)"/><g class="cls-10"><rect class="cls-11" x="129.64" y="36.26" width="163.52" height="163.52"/></g></svg>