<?xml version="1.0" encoding="utf-8"?>
<!-- Generator: Adobe Illustrator 24.3.0, SVG Export Plug-In . SVG Version: 6.00 Build 0)  -->
<svg version="1.1" id="Layer_1" xmlns="http://www.w3.org/2000/svg" xmlns:xlink="http://www.w3.org/1999/xlink" x="0px" y="0px"
	 viewBox="0 0 2500 2414" style="enable-background:new 0 0 2500 2414;" xml:space="preserve">
<style type="text/css">
	.st0{fill:#FFFFFF;}
</style>
<g>
	<path class="st0" d="M1359.9,0.1c0,0,198.3,405.1,161.5,572.3c0,0,518.5,167.2,578,444.8C2099.4,1017.2,2385.5,643.2,1359.9,0.1
		L1359.9,0.1z M1161.6,606.4c51,107.7,73.7,221,104.8,340L971.8,833c28.3-178.5-147.3-453.3-147.3-453.3L1161.6,606.4z M637.5,886.9
		c34,85,70.8,195.5,90.7,289l-266.3-65.2C490.1,932.2,320.2,714,320.2,714L637.5,886.9z"/>
	<path class="st0" d="M1218.3,453.4c0,0,1189.9,835.8,1269.3,1158.8c59.5,243.6-113.3,470.3-113.3,470.3S2280.7,1445,0,2413.9
		c229.5-257.8,357-586.5,323-940.6c-14.2-144.5-51-283.3-113.3-408l535.5,283.3c0,8.5,0,17,2.8,25.5
		c19.8,218.2,5.7,427.8-45.3,623.3c110.5-232.3,161.5-493,136-765c-14.2-164.3-56.7-320.1-121.8-464.6l572.3,379.6
		c2.8,19.8,2.8,36.8,5.7,56.7c22.7,240.8,0,473.1-62.3,685.6c133.2-249.3,201.2-535.5,172.8-835.8
		C1385.4,835.9,1320.3,631.9,1218.3,453.4L1218.3,453.4z"/>
</g>
</svg>
