<?xml version="1.0" encoding="utf-8"?>
<!-- Generator: Adobe Illustrator 24.3.0, SVG Export Plug-In . SVG Version: 6.00 Build 0)  -->
<svg version="1.1" id="Layer_1" xmlns="http://www.w3.org/2000/svg" xmlns:xlink="http://www.w3.org/1999/xlink" x="0px" y="0px"
	 viewBox="0 0 897.3 1012.6" style="enable-background:new 0 0 897.3 1012.6;" xml:space="preserve">
<style type="text/css">
	.st0{fill:#FFFFFF;}
</style>
<g id="Logo">
	<path class="st0" d="M458.4,0c-0.1,60.5-0.3,129.9-0.5,204.4c-72.5,42-146.9,85.1-221.3,128.2c-0.4,0.2-0.9,0.5-1.3,0.8v1.6
		c-0.2,83.8-0.3,171.8-0.4,259.1C172,630.6,109.4,666.9,48.2,702.4V238.2l187.7-109l0.9-0.5L458.4,0z"/>
	<path class="st0" d="M897.2,788.1c-52.2-30.5-112.2-65.5-176.5-103.1c0.1-83.8,0.2-169.7,0.3-255.7c0-0.5,0-1,0-1.5l-1.4-0.8
		c-72.4-42.3-148.4-86.6-223.8-130.5c0.1-72.8,0.1-145.1,0.2-215.9l401.4,233.1v217v1L897.2,788.1z"/>
	<path class="st0" d="M0,775.2c52.5-30,112.8-64.4,177.5-101.3c72.5,42,146.9,85,221.3,128.1c0.4,0.2,0.9,0.5,1.3,0.8l1.4-0.8
		c72.8-41.6,149.2-85.2,225-128.6c63,36.5,125.6,72.7,186.9,108.1l-402.6,231L222.9,904l-0.9-0.5L0,775.2z"/>
</g>
</svg>
