<?xml version="1.0" encoding="utf-8"?>
<!-- Generator: Adobe Illustrator 24.3.0, SVG Export Plug-In . SVG Version: 6.00 Build 0)  -->
<svg version="1.1" id="Layer_1" xmlns="http://www.w3.org/2000/svg" xmlns:xlink="http://www.w3.org/1999/xlink" x="0px" y="0px"
	 viewBox="0 0 1038 862.4" style="enable-background:new 0 0 1038 862.4;" xml:space="preserve">
<style type="text/css">
	.st0{fill:#FFFFFF;}
</style>
<g id="Logo">
	<path class="st0" d="M337.5,624.8l-5.3,2.2c-12.1-7.3-24.9-1.2-37.3-1.8c-11.2,1.7-20.4,8-30,13.5c-9.1,3.1-17.6,8.2-27.8,8
		c-2.8-0.1-4.7,2.6-6.8,4.8c-11.5,12.5-27.9,16.9-42.2,24.8c-3.4,1.9-7.8,0.7-9.3-4.3c5.7-6.1,18-4.4,19.6-14.6
		c2.3-14.2,13.5-16.4,23.8-20.4c14.9,2.3,23.8-10.5,36.2-14.3c6.7-2.7,11.9-8.2,14.1-15c8,3.1,10.5-1.9,12.1-8.2
		c11.5,0.3,6.9-8.6,9.3-15.8c-12,5.1-22.5,9.1-36.1,9.5l38.2-21.2c13.1,0,12.2-6.1,6.2-14.4c18.2-0.1,29.5-14.8,44.3-21.8
		c8.2-3.9,13.5-10.6,25-9.6c11.1,1,23.4-6.3,31.3-14.2c11.5-11.3,26.3-12.8,39.5-18.3c22.7-9.5,43.8-20.2,61.2-38.4
		c4.8-5,9.4-10.2,13.8-15.5c7.2-8.7,15.3-7.2,23.8-3c11.9,5.9,19.4,2.7,25.1-9.4c2.3-4.8,6-11.4,14.4-9.8c2.3,0.5,6.9-1.2,7.6-3.1
		c6.5-15.9,21.7-18.1,35.2-21.5c5.7-1.5,8.3-1.1,5.3-7.3c-2.3-4.8,0.1-7.2,4.7-8.3l0.9,0.9c0.1,0.7,0.8,1.1,1.5,1
		c7.9,8.2,14.6,4.8,20.8-2.3c9.5-4.1,23.6-2.9,21.9-19.5l5.2-0.5c12.3-0.3,22.2-5.6,29.9-15.1c4.9-3.9,8.7-9.2,16.2-9.3
		c2.5,0,8.6-0.3,5.8-6.6l0.2,0.6c9.2,2.4,17.9-2.8,24.7-6c11.9-5.4,27.6-6.2,35.2-15.6s17-10.5,26.1-13.3c6.8-2.1,15.9-5.5,19.3,6.1
		c0.2,0.8,2.8,1.9,3.1,1.6c10.3-11,25.7-1.3,36.6-9c6-4.2,11.7-6.7,16.3,0.3c4.9,7.3-4.6,8.8-7.3,14.4c10.9,0.8,20.9-0.3,30.6-4.3
		c5.3,8,15-1.7,20.6,5.1c-4.2,6.8-14.5,5.6-18.5,14.1l9.5,1.6c-15.7,15.9-42,15.4-53.9,37c8.3,3.4,13.6-4,20.5-3.3
		c-9.8,11.6-19.5,13.6-34,9.2c-10.6-3.3-15.6,7.2-22.9,11.4c3,5.1,12.7,1.7,12.8,7c0.1,6.8-8,8.6-13.6,11.4
		c-7.3,3.7-14.8,7.2-21.5,11.9c-3.4,2.4-14.6,2.3-6.1,11.5c-1.8,0.9-1.1,4.8-4.9,3.5c-14.3-4.7-28.2,1.9-38.9,8.1
		c-13.9,8-28,15.9-41.9,24c-7.2,4.2-10.1,8.6-5.3,16.5c4,6.7,2.9,10.6-5.7,13.7c-10.1,3.7-19.3,6.7-30.1,3.6
		c-11.6-3.4-21.6,3.7-29.9,9.2c-24.5,16.4-53.4,23.4-78.3,38.9c-5.8,3.7-14.3,9.3-23.3,5c-0.9-0.4-1.9-0.5-2.8-0.1
		c-12.8,9.7-29.5,12.7-41.4,23.8v-0.7c-8.9-0.9-15.5,3.6-22.3,8.7c-24.6,18.2-52.2,31-79.5,44.6c-0.6,0.3-1.8-0.4-4-1
		c7.6-7.6,2.7-16.6,4-26.2c-14,3.4-25.8,11.8-39.8,13.4c-3.8,0.5-4.8,4.3-5.3,7.8c-0.9,6.7-5.5,2.8-8.6,3.1
		c-8.7-0.8-16.6,2.4-24.5,4L337.5,624.8z"/>
	<path class="st0" d="M672,175.8l26.5-12.9c19-0.4,32.5-14.8,49.9-19.4c4.5-1.2,6.7-5.4,8.9-9.3c12.3-6.2,25-8.4,38.3-3.5
		c-2.3,1.5-5.5,3.5-2.8,6.2c1.6,1.6,4.1-1.1,5.5-3c15.7-5.1,32.8-2.9,48-9.9l0,0c-5.2,4.8,11.4,14.4-5.1,17.4
		c17.9,1,34.4,1.5,46.3-12.8c2.1-2.5,2.7-3.3,5.1-1.4c4.3,3.4,9.3,3.1,15.1,4.3c-15,6.6-29.7,13.8-45.1,19.3
		c-4,1.4-7.5,3.9-10.3,7.1c-9.9-0.2-13.5,7.2-17.8,14c7,3.9,11.8-4.1,18.2-2.7c2,0.9,5.3-0.2,5.4,3.5c-11.8-0.5-4.7,18.3-20.3,17.9
		c-9.8-0.2-20.3,11.1-29.7,18.4c-2.8,2.1-12.3,7,0.6,13c5.7,2.6-5.5,12.3-9.8,15.1c-7.9,5.1-19.2,5.2-18,19c0.2,2.6-3.7,2.2-6.1,2.6
		c-23.6,3.7-47,7.6-57.7,33.6c-1.8,4.3-5.5,5-9.8,2.8c-17.1-8.6-25.8,2.8-33.5,14.9c-2.6,4-7.3,9.4-9.4,6.4
		c-11.1-15.8-20.3-0.5-30.1,0.7l-0.3,0.7c0.3-2.7-0.8-3.6-3.4-2.8c-7.2,0.5-13.8,2-17.8,8.9c-7.7,0.6-9.5,5.5-9.1,12.3
		c0.2,3.2-1.4,5.9-4.8,6.4s-3.7-1.9-4-4.6c-0.9-7.3-5.7-2-6.7-1c-12.4,11.2-23.4,24.3-40.7,28.5c-0.8,0.3-1.5,1-1.9,1.8
		c-4.8,10.3-8.8,14.1-19.9,9.5c-17.8-7.2-32.2,2.7-44.9,9.1c-11.7,5.8-26.4,7.3-35.7,18.5c-4,4.8-7.8,2.7-9.8-2.8
		c-2.6-6.8-9.2-6.4-11.5-2.6c-5.1,8.3-14.4,6.6-20.7,11.3l-3.1,2.5l-10.5,1.2c-12.5,0.4-12.4,11.5-16.4,19.2
		c-9.7-1.5-18.6-0.4-26.1,6.6c-3.6,3.3-7.5,3.1-12.2,2.9c-5.6-0.3-12.5-2-15.4,6.3c-1.1,3-5.5,3.3-7.2,0.7c-3.1-5-7.6-4-10.6-2.2
		c-3.7,2.2-2.2,6.7-1.4,10.7c3,16-7.1,26.7-23.4,27.9c-22.2,1.7-45.3-1.8-66.4,7c-12.5,5.2-28.2,6.2-35.3,21
		c-11-4-16.3,4.8-22.1,10.8c-11.4,11.6-27.7,14.5-40.3,24.2c-6.2,4.8-15.9,4.4-23.8-0.3c-3.1-1.8-4-5.6-2.2-7.5
		c6.3-6.3,14.9-12.4,23.2-9.4c12,4.3,15.3-1.1,20.4-9.9c8.6-15,24.1-23.8,39.6-26.9c14.4-2.9,6.1-9.5,3.4-11.6
		c-6.8-5.1,0.5-7.9,1.4-7.5c8.9,4.6,9.7-5.6,14.8-7.5c2.3,0.1,4.8,0.6,6.2-2l5.9-0.2c1.2,2.8,2.1,5.7,0.1,8.6
		c-2.2,0.5-5.2-0.6-5.7,3c0,0.3,0.5,1,0.9,1.1c3.5,0.8,4-1.8,4.7-4.2c8.9-1.1,16.2-5,21.5-12.4c2.1-5.2,2.6-10.4,1.3-17.1
		c-10,7.2-21.3,7.4-30.6,12.8l-3.3-3.2c9.2-5.5,19.8-8.8,27.7-16.5l0,0l4.2-2c7.8-3.1,17.5-3,20.8-13c-1.7-3.9-8,0.8-9.1-4.7
		c19.8-0.6,31.1-17.4,47.3-25c8.3-3.9,13.5-12.1,25.5-9c9.8,2.6,35.4-17.6,37.9-26.9l-0.4-0.2c13.2,5.7,24.6-3.4,36.9-4.4
		c19.2-1.6,31.4-13.2,41.8-27.4c1.3-1.8,9.1-4.8,1.8-10c-2.1-1.5,1-5.4,5.3-3.3c11.5,5.7,22.1-2.5,33.4-0.8
		c10.2,1.6,7.5-7.8,8.3-13.1c1.7-10.5,1.4-10.3,12.8-12.7c2-0.4,4.1-2.9,5.1-4.9c4.5-9.2,17.1-5.8,18.6-4.5c12.8,10.9,22.6,2,33.2-3
		c12.3,4.3,19.7-3.3,27.1-11.1c13.7-4.5,20.2-16.2,26.7-27.5c1.7-2.9,4.3-3.4,6.1-5.3c6.1-3,7-11.6,14.8-13.3
		c9.7-2.2,7.8-7.7,2.7-13.4c2.5-2.6,5.8-2,8.8-2.1c14.6-0.8,26.5-6.9,35.5-18.6l2.3-2.8L672,175.8z M555.1,350
		c4.7-0.2,10.5,1.2,9.9-7.6c-0.3-4.2-1.9-5-5.1-4.4c-5.3,1-10.7,2.6-11.3,9.1C548.3,351.7,551.8,350.8,555.1,350z M599.3,235.4
		l-1.1,0.8c0.3,0.3,0.6,1,0.9,1s0.7-0.5,1.1-0.8L599.3,235.4z"/>
	<path class="st0" d="M290.6,191.9c15.8-5.9,29.2-13.7,36.9-30.5c4.6-10.1,14.4-16.6,26.9-9.1c11,6.6,19.2,4.8,26.5-6.3
		c3.6-5.5,8.2-11.6,16.8-11.4c3.1,0.1,6-1.9,7.3-5.9c3.9-12.3,17.8-9.4,25.7-15.9c4.6-3.8,17,3.4,14.4-11.2c-1-5.8,5.7-3.6,7.5-2.4
		c7.8,5.2,13.6,1.6,19.8-2.7c6-4.2,11.5-7.5,18,1.3c3.4,4.7,10.3,4.6,17.2,1.3c42.8-20.8,84.8-43.2,128.8-61.4
		c6.6-2.7,12.6-8.2,20.7-6.4c-1.4,5.9-7.1,6.1-11.2,8.2c-12.5,6.2-26,10.8-36.9,20.4c6.5-1.2,12.4-4,18.5-6.2
		c21.5-7.6,40.6-23.2,65.3-20.3c8.6,4,15.4-6.6,24-2.8c5.5,12.8,11.5,5.7,17.3,0.3c3.5-1.2,7.6-1.6,9.3-5.7l0.6,0.5l13.8-4.6
		c2.8,7.1,7,2.5,10.3,1c5-2.4,9-3.5,10.9,3.3l-3.9,2c-11.3,2.3-22.5,4.9-26,18.3c-11.7,8.7-25.3,13.6-38.3,19.8
		c-4.6,2.2-10.7,2.6-11.9,9.2c-6,4.2-6,7.5,1.8,8.5c3.1,0.4,6.4-2,9.6,0.3c-9,3.7-18.4,6.4-28,7.8c-11.7,1.7-24.6,10.3-32.3,19.7
		c-15.1,18.2-34.4,29.3-54.4,40.1c-15.4,8.3-30.9,16.7-46.9,23.8c-13.6,6-13.8,14.8-8.3,26l-0.1-0.1c-16.8,6.2-37.3,4.5-48.5,22.8
		c-2.2,3.6-6.1,2.2-9.4,2.6c-3.6,0.4-8.8-2-10,3c-0.5,1.8,3.8,4.8,7.1,8.5c-11-1.8-17.9,4.6-25.9,8.6c-2.5,1.2-5.7,5.1-8.8,0.4
		c-4.8-7.1-4.4-6.6-10.7-0.9c-9.8,8.7-13.8,20.7-19.4,31.6c-1.3,2.5-2,5.8-5.8,5.6c-2.9-0.2-4-2.6-4.2-5.2c-0.5-6.9-5.1-4.1-8.6-3.5
		c-4.1,0.6-7.1,4.1-11.9-1.9c-5.6-7-1.3-10.6,0.5-17.4c-55.2,26.2-110.3,51.4-166,75.3c-4-4.4,5.5-7.8,1-9.9s-10.6-1.8-16.1-0.2
		c-19.8,5.8-37.9,15.6-56.2,24.7c-21.8,11-44.2,20.7-67.1,29.1c-14.5,5.2-27.9,13.3-42,19.7c-4.7,2.1-9.6,5.7-15.8,2.9
		c7.7-14.2,23.1-17.2,35.4-24.5h-0.4l4.2-2.9l-5.1-4l3.6-5.9c4.4,0.7,9.6-5.2,13.1,1.8l-2.8,3.1c0.5,0.5,1,1,1.5,1.5l3.3-2.8
		c5.9-1.4,13.4-0.6,14-9.7c4-10.7,17.8-9.5,23.5-19c-10.6-4.4-15.2,7-23.4,8.1c-0.8-1.6-1.7-3.3-2.5-4.9c-0.1-2.2-0.3-4.5-0.4-6.7
		c3.9-3.3,8.2-5.5,13.5-4.5c2.7-0.5,3.5-2.6,4-5l43.6-20.9c-12-1.8-20.5,5.8-30.5,9.4c-3.4,1.2-7.6,3.5-9.3,0.2
		c-2.5-5,2.9-5.8,6.3-7.6c29.7-15.3,60.4-28.5,91.1-41.7c9-3.8,17.2-9.3,25.8-14.1c12-4.1,23.6-8.8,33.6-17
		c-11.8,2.4-24,3.3-33.5,11.7c-20.9,5.9-39.1,18-58.9,26.4l14.7-23.5c11.6-3,20.8-12.4,33.5-12.5c9.9-0.4,10.5-1.1,7.6-8.6l3.5-2.7
		c2.8-0.7,6.2-2.8,8.3-1.9c14.3,6.6,22.9-9.7,36.2-8.5c4.6,0.4,10.1-5.4,8.8-12.6l5.1-3.9c0.6-0.2,0.9-0.8,0.8-1.4
		C290.6,192,290.6,192,290.6,191.9z M686.6,83.9c1.7-0.3,2.4-1.1,1.8-2.8c-17.7-4.6-27.3,9.3-39,18.4L686.6,83.9z"/>
	<path class="st0" d="M269.8,818.1c23.7-10.7,47.4-21.6,71.2-32c9.1-4,19.4-12.6,15.3-19.5c-4.7-7.9-17.2-3.9-25.9,1.9
		c-4.2,2.8-7.7,8-14,6.3l-0.3,0.3c0.2-3.8,0.6-7.7,0.4-11.5c-0.4-10.4,3.1-16.4,14.7-16.5c6.9,0,13.4-1.9,18.8-7.9
		c7.7-8.7-1.6-6.2-5.3-8.5c8.8-6.5,17.4-12,28.4-12.5c2.3,7.8-4.6,9.8-8.6,13.7l-0.5,0.4l0.3-0.6c12.4-0.7,18.2-11.2,26.6-17.8
		c2.5-9.2,8.7-13.7,17.9-16.3c10.2-2.8,19.8-7.8,29.8-11.8c2.7-1.1,5.7-1.6,5.9-5.4c0.5-10.3,2.8-9.2,13-7.2
		c8.8,1.7,23.6-2.4,31.9-11.3c3.8-4.1,6.2-7.7,12.2-7.2c4.6,0.4,7.8-2.9,9-6.3c8.5-23.3,16.2-27.9,40.2-23
		c4.5,5.7,8.9,10.3,15.8,2.5c2.8-3.1,7.2-2.2,11.1-2.4c3.1-0.2,7.7,2.1,8.9-2.2c1.4-5.5-6.3-3.2-7.5-7c1-0.2,1.7-1.1,1.6-2.1
		c6.1-1.8,2-6.2,2.5-9.5c10-4.7,19.8-12.3,30.2-13.2c11.1-1,21.2-0.1,29-9.6c5.9-7.2,6.9,4.5,12.6,3.2c18.8-4,38.7-5,51.3-22.8
		c6.4-9.1,17.2-9.9,26.4-12.7c10-2.9,21.3-5.8,31-3.7c7.2,1.5,6.6-2.5,8.7-5c11.8-14.2,28.3-18,45.1-18.8c20.2-0.9,34-13,48.6-23.9
		c6.3-4.7,5.3-5.3,10.8,1.4c3.3,4.1,11.1,0.4,13.6,6.8c-1.3,0.7-4-0.3-3.2,2.5c0.1,0.3,3.2-0.3,5-0.5c27.3-3.5,51.4-18.3,78.6-22.5
		c1.7-0.2,4.2-1.9,4.5-3.2c3.4-16.2,17.2-15.3,28.8-17.2c6-1,8-0.6,6-8.2c-2.9-11.4,5.1-15.1,15.4-15.2c5.6,0,10.1,2.9,11.9,7.2
		c2.7,6.3-6,5.2-7.3,8.7c-1.9,5-20.6-1.6-9,12.9c0.2,0.2-7.2,7-12.4,9.1c-7.5,3.1-15.3,5.6-14.8,16.8c0.2,4-3.1,8.1-9,3.2
		c-5.8-4.8-11.4-4.8-11.2,5c0.2,12.2-14.1,12.6-17.3,21.6c-5.3,14.6-15.1,5-23.5,6c-12.3,1.5-23.7,8.9-35.8,13
		c-31.4,10.9-60.1,27.8-90.2,41.3c-2.7,1.2-5.7,2.2-7.8,4c-5.2,4.7-14.4,9.4-11.2,16.7c2.8,6.2,10.4-3.4,18.2-0.6
		c-8.2,3.6-12.8,13.4-22.9,5.9c-4.5,9.2-14.9,7.5-21.7,12.2c-3.5,2.4-8.3,1.1-10.9,5.3c-0.5,0.8-3.7,0-5.6,0c1.6-13.6-6-7.9-8.8-3.2
		c-5,8.4-24,10-12.9,27.5c2.4,3.7,5.4,19.4-9.8,21.4c-3.4,0.4-6.5,3.7-9.7,5.7c-5.6-7-6.5-15-5.3-28.1c-11.2,11.8-24.6,14.6-25,30.8
		c-0.4,15.8-29.2,28.2-42.7,19.2c-2-1.3-4.7-4.3-5.8-3.8c-16.4,7.6-35.7,1.2-50.9,9.1c-8.8,4.5-16.8,16.1-19.1,25.9
		c-1.7,7.2,10.3,8.6,18.3,8.8c-0.7,6.1-8.9,7.8-8.8,14c0.1,6.5-5.3,4.7-8.4,5.7c-5,1.6-4.6-3-5.8-6.1c-2.8-7-3.6-12.9-12.4-2
		c-3.9,4.8-15.1,22.2-29.3,8c-2.7-2.7-7.2-2.4-11.1-0.2c-2.6,1.4-7.2,2.8-8.2,0.4c-7.7-17.5-18.4-1.6-27.5-2.6
		c-4-0.4-5.5,3.9-6.2,8.4c-1.7,11.1-8.4,19.2-18.5,23.9c-2.4,1.1-4.3,1.4-4.2,4.5c0.8,15.4-10.3,11.4-18.8,11.3
		c-2.6,0-6.5-3.1-7.6-2.1c-26.6,23.9-64.7,0.2-91.6,22c-1.4,1.1-2.9,3-5,1c-2.9-2.8,3.9-4.4,0.9-7.3c2.4,3.6,5,1.5,7.4,0.1
		c0,0-0.5-1.9-1.1-2.1c-2.6-0.7-4.8-0.1-6.1,2.4c-12.3,1.9-22.4,12.1-35.9,9.4c-1.1-2.9,1.8-6.6-1.5-8.8c-0.5-0.3-2.7,2-4.2,3
		l-5.6-1.1c0-1.7-0.1-3.5-0.1-5.2c0.7-0.4,1.5-0.6,2.3-0.6L269.8,818.1z M541,626.6l-1-1c-0.3,0.3-0.9,0.7-0.9,1s0.6,0.7,0.9,1
		L541,626.6z"/>
	<path class="st0" d="M692.8,33.5C668,30.5,649,46.1,627.5,53.7c-6.1,2.2-12.1,5-18.5,6.2c11-9.6,24.4-14.2,36.9-20.4
		c4.2-2.1,9.8-2.3,11.2-8.2c4-6.9,11.5-8.7,17.9-11.7s14.7-5.6,20-2S690.9,27.6,692.8,33.5z"/>
	<path class="st0" d="M294.9,625.2c12.4,0.7,25.2-5.4,37.3,1.8c-2.3,6.5-7.5,8.8-13.6,10.9c-10.9,3.8-21.4,8.9-32,13.4
		c-2.8,1.2-5.9,2-7.9-0.8c-2.2-3.2,2.3-4.8,2.7-7.5C287,637.9,295,634.6,294.9,625.2z"/>
	<path class="st0" d="M869.1,462.7c13.5-23.4,28.4-35,55.1-27.3C908,448.8,888.9,452,869.1,462.7z"/>
	<path class="st0" d="M73.4,361.1c-3.5-7-8.8-1.1-13.1-1.8c-6.1-7.6-12.6,2.6-18.8-0.3c8.9-9.6,23-10.9,32.4-20.4
		c3.1-3.2,6.5-8.7,12.8-8c0.2,2.2,0.3,4.5,0.4,6.7c-0.4,0.6-0.9,1.3-1.3,1.9c-3.2,1.8-8.2,1.9-8.4,7.9l8.8-2.9
		c-0.7,3.6,1.5,6.2,3.3,8.9c-0.6,9.1-8.1,8.3-14,9.7L73.4,361.1z"/>
	<path class="st0" d="M779,25.5c-1.9-6.8-5.9-5.7-10.9-3.3c-3.3,1.6-7.5,6.1-10.3-1c15.1-6.5,28.5-17,44.9-20.6l-0.2,0.2
		c5.5-3.5,7.2,5,11.9,3.8l-0.2-0.2C801.7,10.2,793.2,22.6,779,25.5z"/>
	<path class="st0" d="M757.2,134.1c-2.1,3.9-4.4,8.1-8.9,9.3c-17.4,4.6-30.9,19-49.9,19.4c3.2-4,8.3-5.6,10.8-11.1
		c2.8-6.3,8.9-8.2,16.7-8.8C736.5,142.1,746.8,137.3,757.2,134.1z"/>
	<path class="st0" d="M187,244.2l-14.6,23.5c-3.1,3.7-7.7,4.3-11.9,5.9l-14.1-3.8C158.4,259,169.2,246,187,244.2z"/>
	<path class="st0" d="M284.8,197.4c1.4,7.3-4.1,13-8.8,12.6c-13.3-1.2-21.9,15.1-36.2,8.5c-2-0.9-5.5,1.2-8.3,1.9
		c2.3-2.4,3.1-5.8,6.9-7C254,208.2,269.4,202.7,284.8,197.4z"/>
	<path class="st0" d="M272.6,607.6c-2.3,6.8-7.4,12.3-14.1,15c-5-7.3-13.5,2.9-18.7-3.6c-1.1-2.4-1.1-6.2,1-6.2
		c9.4-0.4,14.5-9.1,22.9-11.1c2.3,3,5,5.5,9,6.1L272.6,607.6z"/>
	<path class="st0" d="M618.9,202.4c5.1,5.7,7,11.2-2.7,13.4c-7.8,1.7-8.6,10.3-14.8,13.3c-1.5-5.9-7.4-5.3-12.1-8.1
		C596.1,209.4,609.3,208.7,618.9,202.4z"/>
	<path class="st0" d="M239.8,619c5.2,6.5,13.6-3.7,18.7,3.6c-12.5,3.8-21.4,16.6-36.2,14.3C225.7,628.6,228.5,619.6,239.8,619z"/>
	<path class="st0" d="M678.7,357.4c1.7,16.6-12.4,15.4-21.9,19.5c-4.4,0-6.4-2.5-6.7-6.6L678.7,357.4z"/>
	<path class="st0" d="M941.2,305.9c-5.6-6.7-15.3,3-20.6-5.1c0.4-0.2,0.9-0.4,1.3-0.7c8.3-6.5,17.2-11.2,28.3-8.6
		c0,3.2,0,6.3,0.1,9.5L941.2,305.9z"/>
	<path class="st0" d="M579,616.2c1.2,3.8,8.9,1.5,7.5,7c-1.1,4.4-5.8,2-8.9,2.2c-3.8,0.3-8.3-0.7-11.1,2.4
		c-6.9,7.8-11.3,3.2-15.8-2.5C560.5,623.2,568.4,615.6,579,616.2z"/>
	<path class="st0" d="M234.1,418.3c1.1,5.4,7.4,0.8,9.1,4.7c-3.3,10.1-13,10-20.8,13C221.1,426.7,223.1,419.5,234.1,418.3z"/>
	<path class="st0" d="M294.9,625.2c0.1,9.5-7.9,12.7-13.5,17.8c-4.8-3.9-10.8-3.3-16.5-4.3C274.5,633.2,283.6,626.9,294.9,625.2z"/>
	<path class="st0" d="M263.4,851.2c8.9-5.7,17.8-11.6,29.2-11.3C283.2,844.5,275.4,853.1,263.4,851.2z"/>
	<path class="st0" d="M568.6,261.9c-7.4,7.7-14.8,15.4-27.1,11.1c2.7-3.1,6.7-4.4,9-8.6C554.9,256.6,561.7,256.6,568.6,261.9z"/>
	<path class="st0" d="M749.1,45.8c3.5-13.4,14.7-16,26-18.3C772.3,41.9,758,40,749.1,45.8z"/>
	<path class="st0" d="M231.3,241.3c9.5-8.4,21.7-9.3,33.5-11.7c-10,8.2-21.6,12.9-33.6,17L231.3,241.3z"/>
	<path class="st0" d="M373,433c4-7.6,3.9-18.8,16.4-19.2c-1.6,2.3-3.1,4.6-1.3,7.5l-0.1-0.1C387.8,431.2,383.2,435.7,373,433z"/>
	<path class="st0" d="M364.5,731.9c4-3.9,10.9-5.8,8.6-13.7l-0.2,0.4l3.3-4.8c5-6.1,9.8-4.1,14.7,0.2c-8.4,6.6-14.2,17.1-26.6,17.8
		L364.5,731.9z"/>
	<path class="st0" d="M41.5,359.1c6.2,2.9,12.6-7.3,18.8,0.3l-3.6,5.9c0.3,2.3,0.6,4.6,0.9,6.9h0.4c-3.4-1.3-6.5-0.6-9.9,0.6
		c-4.8,1.7-7.8,0.4-6.2-5.5l-0.2,0.9c0-1.1-0.1-2.3-0.1-3.4l0.3-5.9L41.5,359.1z"/>
	<path class="st0" d="M559.9,230.8c2-1.8,3.2-3.4,4.8-4c5.2-2,9.6-7.7,15.9-4.8c2.5,1.2,1.5,5-0.5,6.2
		C574.2,231.6,568.4,237.6,559.9,230.8z"/>
	<path class="st0" d="M212.5,687.2c11-8.3,22.2-16.5,35.7-20.1C237.8,676.4,226.1,683.5,212.5,687.2z"/>
	<path class="st0" d="M852.7,169.1c-6.3-1.4-11.2,6.6-18.2,2.7c4.3-6.8,7.9-14.3,17.8-14L852.7,169.1z"/>
	<path class="st0" d="M612.9,323.7c4-6.8,10.6-8.4,17.8-8.9l3.4,2.8l0.3-0.7C628.9,324.8,624.6,336.2,612.9,323.7z"/>
	<path class="st0" d="M663.2,181.7c-8.9,11.7-20.8,17.8-35.5,18.6C638.6,192.3,650.1,185.5,663.2,181.7z"/>
	<path class="st0" d="M710.3,83.6c-3.2-2.2-6.5,0.1-9.6-0.3c-7.7-1-7.8-4.2-1.8-8.5c3.7-0.1,7.4,0.3,11-0.3c4-0.7,7.2,0.9,7.5,4.3
		C717.6,82.6,713.2,82.7,710.3,83.6z"/>
	<path class="st0" d="M228.4,850.2c-6.9,6.1-14.2,11.4-26.9,12.3C210.8,854,218.4,849.5,228.4,850.2z"/>
	<path class="st0" d="M950.3,301c0-3.2-0.1-6.3-0.1-9.5c5.4-2.6,9.8-8.3,16.8-5.7c1.3,0.5,3,3.8,2.7,4.1
		C964.4,295.6,958.3,299.9,950.3,301z"/>
	<path class="st0" d="M0,391.8c8.6-5.5,14.2-16.9,27.8-14.4C19.7,385.6,11.5,391.7,0,391.8z"/>
	<path class="st0" d="M337.5,624.8l-6.5-7.3c7.8-1.6,15.8-4.8,24.5-4C354.6,625.5,343.5,621.1,337.5,624.8z"/>
	<path class="st0" d="M302.3,557.4c6,8.3,6.9,14.3-6.2,14.4C285.7,561.6,295,559.9,302.3,557.4z"/>
	<path class="st0" d="M146.3,269.8l14.1,3.8c-9.3,1.7-17.2,6.8-25.5,10.9l-1.8-2.6C139.3,279.8,137.7,269.2,146.3,269.8z"/>
	<path class="st0" d="M650.1,370.3c0.3,4.2,2.3,6.6,6.7,6.6c-6.3,7-12.9,10.5-20.8,2.3C639.5,374.3,644.3,371.6,650.1,370.3z"/>
	<path class="st0" d="M713.8,341.9c-7.7,9.5-17.5,14.8-29.9,15.1C692.4,349.4,702.7,344.2,713.8,341.9z"/>
	<path class="st0" d="M873,190.4c6.7-9.3,15.6-3.9,22.2-6.9C889.7,189.4,883,191.4,873,190.4z"/>
	<path class="st0" d="M190.4,454.6l3.4,3.2c0.6,2.8,1.3,5.7,1.9,8.5c-1.5,2.6-3.9,2.1-6.2,2c0-1-0.1-1.9-0.2-2.8
		c-1-5.5-8.6,2.1-8.4-3.8C181.1,456.7,186.2,455.6,190.4,454.6z"/>
	<path class="st0" d="M734.2,31c-5.9,5.4-11.8,12.5-17.3-0.3l17.3-2.8l-0.1-0.1C734.1,28.9,734.1,29.9,734.2,31z"/>
	<path class="st0" d="M263.8,820.8c0,1.7,0.1,3.5,0.1,5.2l-21.6,6.9C248.4,826.4,255.7,822.9,263.8,820.8z"/>
	<path class="st0" d="M33,368.6c-1.5,1.2-3,2.4-4.6,3.4c-2.6,1.7-6,2.8-7.7-0.2c-2-3.6,2.1-4.7,4.3-6.1c2.5-1.4,5.2-2.6,7.9-3.6
		L33,368.6z"/>
	<path class="st0" d="M228.1,223c2.9,7.5,2.2,8.3-7.6,8.6C222.3,228.2,223.3,224,228.1,223z"/>
	<path class="st0" d="M33,368.6l-0.1-6.5l9-3.1l-0.3,5.9c-0.2,0.4-0.7,0.8-0.7,1.2c0.2,0.8,0.5,1.5,0.8,2.2l0.2-0.9
		C38.6,365.1,35.9,367.7,33,368.6z"/>
	<path class="st0" d="M284.7,599.3c-1.6,6.3-4,11.4-12.1,8.2l0.2,0.2c-0.4-1.7-0.8-3.3-1.1-5l1.1,0.6l-0.6,1.1
		c3.2-0.7,5.4-2.4,6.4-5.6L284.7,599.3z"/>
	<path class="st0" d="M672,175.8l-6.5,3.2c-1.3,0-3.2-0.8-1.8-1.8C665.9,175.4,668.7,172.7,672,175.8z"/>
	<path class="st0" d="M269.5,827.2c1.4-1.1,3.7-3.3,4.2-3c3.4,2.2,0.5,5.9,1.5,8.8L269.5,827.2z"/>
	<path class="st0" d="M73.1,328.6l-2.6,1.4c-0.6-1.2-1.7-2.5-1.7-3.7c-0.1-0.9,0.5-1.8,1.5-1.9c0.6-0.1,1.2,0.1,1.5,0.6
		C72.6,325.7,72.7,327.3,73.1,328.6z"/>
	<path class="st0" d="M218.1,438c-2.4-2-6.8-2.4-6-7c0.1-0.6,1.5-1.7,1.9-1.5C217.9,431,216.3,435.4,218.1,438L218.1,438z"/>
	<path class="st0" d="M703.5,21c2.8-4.8,5-7.9,10-5.1C712,20.5,709.9,23.6,703.5,21z"/>
	<path class="st0" d="M271.6,602.7c0.4,1.7,0.7,3.3,1.1,5c-4-0.5-6.7-3.1-9-6.1L271.6,602.7z"/>
	<path class="st0" d="M278.5,598.9c-0.9,3.2-3.2,4.9-6.4,5.6C272.2,600.2,274.5,598.6,278.5,598.9z"/>
	<path class="st0" d="M583.2,604.6c-0.5,3.2,3.7,7.7-2.5,9.5C580.2,610.6,581.3,607.6,583.2,604.6z"/>
	<path class="st0" d="M734.2,27.9c2.2-5.8,5.8-5.3,9.9-2.1l-0.6-0.5l-9.4,2.5L734.2,27.9z"/>
	<path class="st0" d="M814.4,4.6c-0.3-1.9-0.2-3.5,2-4.1c0.4,0,0.8,0.2,1,0.6c0.4,2.6-2.2,2.2-3.3,3.3L814.4,4.6z"/>
	<path class="st0" d="M399.9,412.6l3.2-2.6c-0.4,1.3-0.7,2.5-1.1,3.8L399.9,412.6z"/>
	<path class="st0" d="M125.9,285.4c0.5,0.5,0.9,1.1,1.4,1.7c0,0.1-0.6,0.8-0.9,0.8c-0.8-0.2-1.5-0.5-2.2-0.9L125.9,285.4z"/>
	<path class="st0" d="M104.2,321.2c-0.5,2.3-1.3,4.4-4,5C101,324.1,101.3,321.7,104.2,321.2z"/>
	<polygon class="st0" points="540.4,201.1 540.1,201.9 540.3,201 	"/>
	<path class="st0" d="M290.6,191.9c0.3,0.5,0.1,1.2-0.5,1.5c-0.1,0-0.1,0.1-0.2,0.1l-0.1-1L290.6,191.9z"/>
	<path class="st0" d="M846.3,124c-0.8-0.5-2.3-1.2-2.2-1.4c0.4-1.4,0.9-1.1,1.2,0.4C845.4,123.3,845.9,123.6,846.3,124L846.3,124z"
		/>
	<path class="st0" d="M735.7,326l0.7,0.6c-0.2,0-0.3,0-0.5,0C735.9,326.4,735.8,326.2,735.7,326z"/>
	<path class="st0" d="M376.2,713.8l-3.3,4.8C372.8,716.5,374.1,714.5,376.2,713.8z"/>
	<path class="st0" d="M316.3,774.9l0.2,1c0,0-0.5-0.7-0.5-0.7C316.1,775.1,316.2,775,316.3,774.9z"/>
	<path class="st0" d="M269.8,818.1l-3.6,2.1L269.8,818.1z"/>
	<path class="st0" d="M388,421.3L388,421.3L388,421.3z"/>
	<path class="st0" d="M134.9,284.4c-1.3,0-3.3,0.4-3.7-0.2c-1-1.6,0.7-2,1.9-2.4L134.9,284.4z"/>
	<polygon class="st0" points="721.1,12 720.3,12.2 720.4,11.4 	"/>
	<path class="st0" d="M510.7,563.8L510,563c0.2,0,0.4,0.1,0.7,0.1C510.7,563.4,510.8,563.6,510.7,563.8z"/>
	<path class="st0" d="M344.7,357.4l-1,0.6c1.1,0.7,1.3,0.4,0.7-0.8L344.7,357.4z"/>
	<polygon class="st0" points="634.5,378.2 633.6,377.3 634.6,377.1 	"/>
	<path class="st0" d="M195.7,466.3c-0.6-2.8-1.3-5.7-1.9-8.5c9.3-5.4,20.7-5.5,30.6-12.8c1.2,6.8,0.8,12-1.3,17.1
		c-0.1-6.7-4.5-6.7-8.7-4.6c-4.6,2.2-8.6,5.7-12.8,8.6L195.7,466.3z"/>
	<path class="st0" d="M201.6,466c4.2-2.9,8.2-6.3,12.8-8.6c4.2-2.1,8.6-2.1,8.7,4.6c-5.3,7.3-12.6,11.3-21.5,12.4l0.1,0.1
		C203.8,471.7,202.8,468.8,201.6,466z"/>
	<path class="st0" d="M555.1,350c-3.3,0.8-6.8,1.7-6.4-2.9c0.6-6.5,6-8.1,11.3-9.1c3.2-0.6,4.8,0.2,5.1,4.4
		C565.6,351.2,559.8,349.8,555.1,350z"/>
	<path class="st0" d="M201.6,474.4c-0.7,2.3-1.2,5-4.7,4.2c-0.4-0.1-0.9-0.7-0.9-1.1c0.5-3.6,3.5-2.5,5.7-3L201.6,474.4z"/>
	<path class="st0" d="M798.3,133.9c-1.4,1.9-3.9,4.7-5.5,3c-2.7-2.7,0.5-4.7,2.8-6.2L798.3,133.9z"/>
	<path class="st0" d="M634,317.6l-3.4-2.8C633.2,314,634.3,315,634,317.6z"/>
	<path class="st0" d="M599.3,235.4l0.9,1c-0.4,0.3-0.7,0.8-1.1,0.8s-0.6-0.6-0.9-1L599.3,235.4z"/>
	<path class="st0" d="M686.5,83.9l-37.3,15.6c11.8-9.1,21.3-23,39-18.4C687.7,82,687.1,82.9,686.5,83.9z"/>
	<path class="st0" d="M89.5,353.2c-1.8-2.7-4-5.3-3.3-8.9l3.3-2.6l0.1,0.6c8.1-1.1,12.8-12.5,23.4-8.1
		C107.2,343.7,93.5,342.6,89.5,353.2z"/>
	<path class="st0" d="M734.1,27.8l9.4-2.5c-1.7,4.1-5.8,4.5-9.3,5.7C734.1,29.9,734.1,28.9,734.1,27.8z"/>
	<path class="st0" d="M57.6,372.2c-0.3-2.3-0.6-4.6-0.9-6.9l5.1,4L57.6,372.2z"/>
	<path class="st0" d="M686.5,83.9c0.6-0.9,1.2-1.9,1.8-2.8C689,82.7,688.2,83.6,686.5,83.9z"/>
	<path class="st0" d="M70.6,364.2l2.8-3.1l2,1.8l-3.3,2.8C71.6,365.3,71.1,364.8,70.6,364.2z"/>
	<path class="st0" d="M72.1,365.7c-0.5-0.5-1-1-1.5-1.5C71.1,364.8,71.6,365.3,72.1,365.7z"/>
	<path class="st0" d="M87.1,337.4c0.9,1.6,1.7,3.3,2.5,4.9l-0.1-0.6l-3.7-2.4C86.2,338.7,86.7,338,87.1,337.4z"/>
	<path class="st0" d="M311.1,823.6c1.4-2.6,3.6-3.2,6.1-2.4c0.5,0.2,1.1,2,1.1,2.1c-2.5,1.4-5,3.5-7.4-0.1L311.1,823.6z"/>
	<path class="st0" d="M892.3,508.6c-1.7,0.2-4.9,0.8-5,0.5c-0.8-2.8,1.9-1.9,3.2-2.5C891.1,507.2,891.7,507.9,892.3,508.6z"/>
	<path class="st0" d="M541,626.6l-1,1c-0.3-0.3-0.9-0.7-0.9-1s0.6-0.7,0.9-1C540.3,625.9,540.7,626.2,541,626.6z"/>
	<polygon class="st0" points="364.3,731.7 364,732.3 364.5,731.9 	"/>
	<path class="st0" d="M85.8,339.3l3.7,2.4l-3.3,2.6l-8.8,2.9C77.6,341.2,82.6,341.1,85.8,339.3z"/>
	<path class="st0" d="M802.5,0.8l0.2-0.2L802.5,0.8z"/>
	<path class="st0" d="M41.7,368.2c-0.3-0.7-0.6-1.5-0.8-2.2c-0.1-0.3,0.4-0.8,0.7-1.2C41.6,365.9,41.6,367,41.7,368.2z"/>
</g>
</svg>
