<?xml version="1.0" encoding="utf-8"?>
<!-- Generator: Adobe Illustrator 24.3.0, SVG Export Plug-In . SVG Version: 6.00 Build 0)  -->
<svg version="1.1" id="Layer_1" focusable="false" xmlns="http://www.w3.org/2000/svg" xmlns:xlink="http://www.w3.org/1999/xlink"
	 x="0px" y="0px" viewBox="0 0 14 14" style="enable-background:new 0 0 14 14;" xml:space="preserve">
<style type="text/css">
	.st0{fill:#FFFFFF;}
</style>
<path class="st0" d="M9.4,13.2C9.4,13.2,9.4,13.1,9.4,13.2c-0.1,0-0.1-0.1-0.1-0.2c0-0.1,0-0.3,0-0.4c-0.1-0.5-0.1-0.6,0-0.7
	c0.1-0.2,0.1-0.3-0.2-0.3c-0.3,0-0.5-0.2-0.5-0.4c0-0.2,0.2-0.4,0.5-0.4c0.6-0.1,0.7-0.6,0.3-0.8c-0.2-0.1-0.2-0.1-0.8,0
	c-2.1,0.4-2.4,0.5-2.9,0.3c-0.1,0-0.3-0.1-0.4-0.2c-0.5-0.5-0.5-1.5,0-2c0.1-0.1,0.2-0.2,0.2-0.5c0-0.2,0.1-0.5,0.2-0.6
	c0.1-0.2,0.5-0.7,0.6-0.7c0.1,0,0.1-0.1,0-0.3c-0.1-0.2-0.1-0.4,0-0.8c0-0.3,0.1-0.6,0.1-0.7c0-0.2,0-0.2-0.2-0.1
	c-0.5,0.1-0.8,0.5-0.6,1c0,0.1,0,0.2,0,0.2C5.5,5.6,5.4,5.3,5.4,5c0-0.5,0.3-0.8,0.7-1L6.4,4L6.3,3.8C6,3.4,5.6,3.4,5.3,3.6
	C5,3.8,4.9,4.2,4.7,5.1C4.6,6,4.4,6.5,4.1,6.9C3.7,7.5,3,7.5,2.6,6.9C2.4,6.8,2.4,6.5,2.5,6.1l0-0.2L2.4,6.1C2.2,6.3,2,6.4,1.8,6.3
	C1.7,6.2,1.6,6.2,1.5,6.2C1.4,6.2,1.3,6,1.1,5.8C1,5.6,0.8,5.4,0.7,5.4c-0.1,0-0.1-0.1-0.1-0.1c0-0.1,0.1-0.1,0.2,0
	c0.1,0.1,0.3,0.1,0.5,0.2c0.3,0.1,0.4,0.1,0.5,0.3L2,5.9l0.1-0.1c0.1-0.1,0.1-0.2,0.2-0.3c0.2-0.2,0.5-0.2,0.6,0C3,5.7,3,5.7,3,6
	C2.9,6.4,2.9,6.5,3,6.7c0.2,0.2,0.3,0.2,0.5,0C3.7,6.5,3.8,6.4,4,5.2c0.4-1.7,0.6-2,1.1-2.3c0.3-0.1,0.6-0.1,1,0
	c0.4,0.1,0.7,0.4,0.8,0.8C7,4,7.1,4.1,7.1,4.1c0.1,0,0.2,0.1,0.4,0.3c0.4,0.3,0.7,0.8,0.7,1.1c0,0.2,0,0.2,0.1,0.2
	c0.2,0,0.5,0.2,0.9,0.6l0.4,0.4l0.1-0.1C10,6.4,10,6.1,9.9,5.8C9.8,5.6,9.5,5.4,9.3,5.4c-0.1,0-0.1,0-0.1-0.1c0-0.1,0.1-0.1,0.3-0.1
	c0.2,0,0.5,0.2,0.6,0.5c0.1,0.3,0.1,0.5,0,0.8l-0.1,0.2h0.2c0.3,0,0.6-0.1,0.7-0.3C11,6.3,11,6,10.9,5.7c-0.1-0.1-0.4-0.6-0.7-0.9
	C9.3,3.9,9,3.3,9,2.8c0-0.3,0.2-0.6,0.5-0.7c0.4-0.2,0.8-0.1,1.1,0.3c0.2,0.3,0.2,0.2,0.1-0.1c-0.1-0.2,0-0.5,0.2-0.6
	c0.1,0,0.2-0.1,0.3-0.2c0.1-0.1,0.2-0.1,0.5-0.1c0.2,0,0.5-0.1,0.5-0.1c0.2-0.1,0.2-0.1,0.2,0c0,0.1,0,0.1-0.2,0.1
	c-0.1,0-0.3,0.2-0.4,0.3c-0.2,0.2-0.3,0.3-0.5,0.3c-0.2,0-0.3,0.1-0.1,0.4c0.1,0.2,0.1,0.3-0.1,0.5c-0.2,0.2-0.4,0.2-0.7-0.2
	c-0.2-0.2-0.3-0.3-0.5-0.3c-0.3,0-0.4,0.1-0.4,0.3c0,0.3,0.1,0.4,0.7,1.2c1.1,1.2,1.4,1.7,1.4,2.1c0,0.9-1,1.5-1.8,1.2
	C9.7,7.3,9.6,7.3,9.3,7.4C8.9,7.6,8.3,7.6,7.9,7.5c-0.2-0.1-0.2-0.1-0.3,0C7.5,7.7,7.2,7.8,6.8,7.9C6,8.2,5.9,8.2,6.3,8.5
	c0.2,0.2,0.2,0.2,0.5,0.2c0.2,0,0.4,0,0.5-0.2c0.3-0.2,0.3-0.2,0.2,0C7.3,8.9,6.7,9.1,6.3,8.9C6.2,8.8,6.1,8.7,6,8.6L5.8,8.4
	L5.7,8.5C5.6,8.7,5.5,9.1,5.6,9.3c0.2,0.4,0.9,0.5,1.9,0.2c0.7-0.2,1.6-0.3,2-0.2c0.3,0.1,0.6,0.4,0.7,0.7c0.1,0.5-0.2,1-0.8,1
	c-0.1,0-0.3,0.1-0.3,0.1c0,0,0,0,0.1,0c0.1,0,0.2,0,0.3,0c0.2,0.1,0.3,0.3,0.3,0.5c0,0.1,0,0.2,0,0.2c0,0.1,0,0.2-0.2,0.5
	C9.5,12.8,9.4,13,9.4,13.2C9.5,13.3,9.5,13.3,9.4,13.2L9.4,13.2z M6.9,7.3C7,7.2,7.1,7.1,7.2,7c0.1-0.1,0.1-0.2,0-0.3
	C7.1,6.6,7.1,6.6,7,6.6c-0.1,0-0.4,0.1-0.6,0.3C6.3,7,6,7.5,6,7.6C6,7.7,6.5,7.5,6.9,7.3z M9.2,7C9.2,7,9.2,6.9,9,6.8
	C8.7,6.5,8.3,6.3,8.1,6.3C8,6.3,7.8,6.5,7.9,6.6C8,6.8,8.1,6.9,8.4,7C8.6,7.1,9,7.1,9.2,7L9.2,7z M7.5,5.9c0.1-0.1,0.1-0.6,0-0.8
	C7.4,4.9,7.1,4.5,7,4.5C7,4.5,7,5.5,7,5.7C7.1,6,7.4,6.1,7.5,5.9L7.5,5.9z"/>
</svg>
