<?xml version="1.0" encoding="utf-8"?>
<!-- Generator: Adobe Illustrator 24.3.0, SVG Export Plug-In . SVG Version: 6.00 Build 0)  -->
<svg version="1.1" id="Layer_1" xmlns="http://www.w3.org/2000/svg" xmlns:xlink="http://www.w3.org/1999/xlink" x="0px" y="0px"
	 viewBox="0 0 800.4 869.4" style="enable-background:new 0 0 800.4 869.4;" xml:space="preserve">
<style type="text/css">
	.st0{fill:#FFFFFF;}
</style>
<g id="Logo">
	<path class="st0" d="M796.3,502.5c1.8-11.4,3.2-23,4-34.7c-146-74.7-349.8-68.4-349.8-68.4c172.5-33.9,297-15.8,349.2-4.3
		C779.8,173.6,593.7,0,366.9,0C331.6,0,296.3,4.3,262,12.8c68.2,0.9,269.2,21.6,361.5,226.4c-82.7-35.2-159.3-48.9-159.3-48.9
		c-8.3,51.6-34.1,73.6-34.1,73.6c32.6-59.2,15.3-130.4-0.2-125.7c-73.7,22.2-47.5,13.4-102.2,25.6c-98.4,21.9-154.3,67.4-154.3,67.4
		l11.2-29.5c-21.3,2.2-72,59.9-72,59.9l6.4-33.3c-32.8,36.9-54.4,110-58.4,117.8s-64.1,60.2-60.3,79.3c3.1,15.3,47.9,5.7,47.9,5.7
		c-0.2,1.7-0.6,3.3-1.1,4.9c-3.9,8.4-21.6,1.5-32.1,6.8s-10.6,12.1-1.6,49.2s37.4,30.9,37.4,30.9c7.2,31.2,47.8,52,47.8,52
		c-27.4-53.8,11.1-74.5,11.1-74.5c11.2,29.7,43.8,41,43.8,41c-23.6-49.8-31.7-71.8-11.8-86.4c41.9-30.9,53.5-39.6,111.1,12.8
		s-46.8,86-46.8,86c-11.6-2-44-39.3-44-39.3c0.7,20.2,11.9,49.9,11.9,49.9c-35.9-2-66.2-31.9-66.2-31.9s-0.1,19.7,22.1,79.6
		c27.6,74.3,96.9,7.8,96.9,7.8c75.9-52.3,134.6-46.5,134.6-46.5c49.5,13.7,101,183.6,101,183.6s-181.1,117.5-393-5.4
		c80.5,75.8,186.9,117.9,297.5,117.8c167.4,0,312.8-94.7,385.4-233.5c-104.2-60.1-199.7-84-199.7-84c40.6-4.1,155.5,18.7,219.9,39.5
		c3.2-8.3,6.2-16.8,8.9-25.4c-134.2-76.3-282.7-92.9-282.7-92.9C613,468.3,740.2,490.9,796.3,502.5z M127.4,333.7l-35.6,8.4
		c0,0,3.6-30.2,57.1-39.3L127.4,333.7z"/>
</g>
</svg>
