<?xml version="1.0" encoding="utf-8"?>
<!-- Generator: Adobe Illustrator 24.3.0, SVG Export Plug-In . SVG Version: 6.00 Build 0)  -->
<svg version="1.1" id="Layer_1" xmlns="http://www.w3.org/2000/svg" xmlns:xlink="http://www.w3.org/1999/xlink" x="0px" y="0px"
	 viewBox="0 0 500 500" style="enable-background:new 0 0 500 500;" xml:space="preserve">
<style type="text/css">
	.st0{fill:#FFFFFF;}
</style>
<g>
	<path class="st0" d="M270.6,33.2c-14.5,8.6-17.2,15.7-18.2,47.1l-0.7,28.2l-18.7,5.6c-26.7,8.3-55,25.8-76.1,47.1
		c-21.4,21.6-34.4,43.4-43.7,71.4l-6.9,21.1H81.9c-29.4,0-41.2,4.7-48.6,18.4c-6.4,11.3-4.7,29.9,3.7,39
		c10.6,11,17.9,13.5,45.2,13.5h25.3l4.2,14.5c16.9,59.4,65,107.7,125.4,126.1c18.9,5.9,60.9,7.9,82.5,4.2
		c72.2-12.8,129.3-67,147.2-139.6c8.6-35.8,2.2-89.3-15-122.9c-22.6-44.7-69-82.7-116.3-95l-12.3-3.2v-27c0-22.3-0.7-28.2-5.2-35.3
		C307.7,29.6,286.6,23.4,270.6,33.2L270.6,33.2z M327.6,183.4c49.3,18.2,82,75.1,71.7,124.9c-11.3,56.4-55.2,92.5-111.7,92.5
		c-49.3,0-88.3-27.5-106-74.4c-7.4-20.4-7.4-54,0-74.6C204.1,191.8,268.2,161.3,327.6,183.4L327.6,183.4z"/>
	<path class="st0" d="M263.5,220.2c-18.4,6.1-40,28.2-45.4,46.4c-8.6,29.4-2.9,52.3,18.4,73.9c11.8,11.8,17.7,15.5,29.4,18.7
		c34.6,10.1,69.9-5.4,86.9-38c5.4-10.3,6.4-16.2,6.4-31.7c0-21.8-6.9-38.5-21.6-52.3C318.3,218.5,288.3,211.9,263.5,220.2z
		 M299.1,274.7c9.3,8.1,9.3,21.1,0.2,29.2c-3.7,2.9-9.1,5.9-12,5.9c-6.9,0-20.1-13.5-20.1-20.4s13.3-20.4,20.1-20.4
		C290.3,269.1,295.7,271.5,299.1,274.7z M101.3,90.4c-13,6.6-18.9,16.2-18.9,29.9c0,16,5.6,25.8,17.7,32.1
		c16.9,8.6,30.9,5.4,44.2-10.1c13.3-15.7,6.6-42.2-13-51.8C120.7,85.5,111.4,85.5,101.3,90.4z"/>
</g>
</svg>
